<svg xmlns="http://www.w3.org/2000/svg" viewBox="0 0 64 64" fill="none">
  <rect width="64" height="64" rx="18" fill="url(#bg)"/>
  <rect x="10" y="10" width="44" height="44" rx="14" fill="url(#panel)" stroke="rgba(255,255,255,0.06)"/>
  <rect x="16" y="14" width="2" height="36" rx="1" fill="url(#rail)"/>

  <circle cx="29" cy="33" r="11" fill="url(#globe)" stroke="#7DD6FF" stroke-opacity="0.5"/>
  <path d="M23 30.5c2-2 4.7-2.3 6.2-.8 1.2 1.1 1.3 3 .4 4.4-.8 1.1-2.2 1.5-3.5 2.1-1.2.5-2.2 1.4-2.9 2.5" fill="#63DDA3" fill-opacity="0.95"/>
  <path d="M31.5 36.6c1-.7 2.2-1 3.4-.8 1 .2 1.9.8 2.5 1.6.5.7.8 1.5 1.3 2.1" fill="#63DDA3" fill-opacity="0.9"/>

  <rect x="39" y="20" width="1.7" height="22" rx="0.85" fill="#E9F3FF" fill-opacity="0.78"/>
  <path d="M40.7 22.5c4.6 0 6.9 1.2 8.7 2.6-1.8 1.3-4.1 2.5-8.7 2.5v-5.1Z" fill="#73DDFF"/>
  <path d="M40.7 27.6c4.2 0 6.2 1.1 7.9 2.3-1.7 1.2-3.7 2.3-7.9 2.3v-4.6Z" fill="#57DB9E"/>
  <path d="M40.7 32.2c3.8 0 5.8 1 7.2 2.1-1.4 1.1-3.4 2.1-7.2 2.1v-4.2Z" fill="#FFD778"/>

  <defs>
    <linearGradient id="bg" x1="32" y1="0" x2="32" y2="64" gradientUnits="userSpaceOnUse">
      <stop stop-color="#071220"/>
      <stop offset="1" stop-color="#040B16"/>
    </linearGradient>
    <linearGradient id="panel" x1="32" y1="10" x2="32" y2="54" gradientUnits="userSpaceOnUse">
      <stop stop-color="#0A1628"/>
      <stop offset="1" stop-color="#07111F"/>
    </linearGradient>
    <linearGradient id="rail" x1="17" y1="14" x2="17" y2="50" gradientUnits="userSpaceOnUse">
      <stop stop-color="#59D5FF" stop-opacity="0.08"/>
      <stop offset="0.5" stop-color="#59D5FF"/>
      <stop offset="1" stop-color="#59D5FF" stop-opacity="0.14"/>
    </linearGradient>
    <linearGradient id="globe" x1="29" y1="22" x2="29" y2="44" gradientUnits="userSpaceOnUse">
      <stop stop-color="#102844"/>
      <stop offset="1" stop-color="#081629"/>
    </linearGradient>
  </defs>
</svg>
